<?xml version="1.0" encoding="UTF-8" standalone="no"?><svg xmlns="http://www.w3.org/2000/svg" xmlns:xlink="http://www.w3.org/1999/xlink" contentStyleType="text/css" height="2252px" preserveAspectRatio="none" style="width:1490px;height:2252px;background:#000000;" version="1.1" viewBox="0 0 1490 2252" width="1490px" zoomAndPan="magnify"><defs/><g><rect fill="#000000" height="2041.0703" style="stroke:#E7E7E7;stroke-width:1.0;" width="10" x="43.5" y="112.4297"/><rect fill="#000000" height="2041.0703" style="stroke:#E7E7E7;stroke-width:1.0;" width="10" x="260.5" y="112.4297"/><rect fill="#000000" height="1911.2109" style="stroke:#E7E7E7;stroke-width:1.0;" width="10" x="505.5" y="242.2891"/><rect fill="none" height="1007.9141" style="stroke:#FFFFFF;stroke-width:1.5;" width="843.5" x="10" y="344.8828"/><rect fill="none" height="133.6641" style="stroke:#FFFFFF;stroke-width:1.5;" width="551.5" x="20" y="369.0156"/><rect fill="none" height="784.8516" style="stroke:#FFFFFF;stroke-width:1.5;" width="823.5" x="20" y="560.9453"/><rect fill="none" height="61.3984" style="stroke:#FFFFFF;stroke-width:1.5;" width="384" x="449.5" y="701.6094"/><rect fill="none" height="61.3984" style="stroke:#FFFFFF;stroke-width:1.5;" width="384" x="449.5" y="893.5391"/><rect fill="none" height="61.3984" style="stroke:#FFFFFF;stroke-width:1.5;" width="384" x="449.5" y="1085.4688"/><rect fill="none" height="61.3984" style="stroke:#FFFFFF;stroke-width:1.5;" width="384" x="449.5" y="1277.3984"/><rect fill="none" height="431.4531" style="stroke:#FFFFFF;stroke-width:1.5;" width="1044" x="429.5" y="1467.5234"/><rect fill="none" height="371.1875" style="stroke:#FFFFFF;stroke-width:1.5;" width="1024" x="439.5" y="1520.7891"/><rect fill="none" height="198.3906" style="stroke:#FFFFFF;stroke-width:1.5;" width="1004" x="449.5" y="1544.9219"/><rect fill="none" height="183.2578" style="stroke:#FFFFFF;stroke-width:1.5;" width="1271" x="200.5" y="1912.9766"/><line style="stroke:#E7E7E7;stroke-width:0.5;stroke-dasharray:5.0,5.0;" x1="48" x2="48" y1="81.2969" y2="2171.5"/><line style="stroke:#E7E7E7;stroke-width:0.5;stroke-dasharray:5.0,5.0;" x1="265.5" x2="265.5" y1="81.2969" y2="2171.5"/><line style="stroke:#E7E7E7;stroke-width:0.5;stroke-dasharray:5.0,5.0;" x1="510.5" x2="510.5" y1="81.2969" y2="2171.5"/><line style="stroke:#E7E7E7;stroke-width:0.5;stroke-dasharray:5.0,5.0;" x1="621.5" x2="621.5" y1="202.3594" y2="2171.5"/><line style="stroke:#E7E7E7;stroke-width:0.5;stroke-dasharray:5.0,5.0;" x1="752.5" x2="752.5" y1="319.0859" y2="2171.5"/><line style="stroke:#E7E7E7;stroke-width:0.5;stroke-dasharray:5.0,5.0;" x1="883.5" x2="883.5" y1="1441.7266" y2="2171.5"/><line style="stroke:#E7E7E7;stroke-width:0.5;stroke-dasharray:5.0,5.0;" x1="993.5" x2="993.5" y1="1600.8516" y2="2171.5"/><line style="stroke:#E7E7E7;stroke-width:0.5;stroke-dasharray:5.0,5.0;" x1="1103.5" x2="1103.5" y1="1998.0391" y2="2171.5"/><text fill="#FFFFFF" font-family="sans-serif" font-size="14" lengthAdjust="spacing" textLength="31" x="30" y="77.9951">User</text><ellipse cx="48.5" cy="13.5" fill="#222222" rx="8" ry="8" style="stroke:#E7E7E7;stroke-width:0.5;"/><path d="M48.5,21.5 L48.5,48.5 M35.5,29.5 L61.5,29.5 M48.5,48.5 L35.5,63.5 M48.5,48.5 L61.5,63.5 " fill="none" style="stroke:#E7E7E7;stroke-width:0.5;"/><text fill="#FFFFFF" font-family="sans-serif" font-size="14" lengthAdjust="spacing" textLength="31" x="30" y="2183.4951">User</text><ellipse cx="48.5" cy="2195.2969" fill="#222222" rx="8" ry="8" style="stroke:#E7E7E7;stroke-width:0.5;"/><path d="M48.5,2203.2969 L48.5,2230.2969 M35.5,2211.2969 L61.5,2211.2969 M48.5,2230.2969 L35.5,2245.2969 M48.5,2230.2969 L61.5,2245.2969 " fill="none" style="stroke:#E7E7E7;stroke-width:0.5;"/><rect fill="#222222" height="30.2969" rx="2.5" ry="2.5" style="stroke:#E7E7E7;stroke-width:0.5;" width="110" x="210.5" y="50"/><text fill="#FFFFFF" font-family="sans-serif" font-size="14" lengthAdjust="spacing" textLength="96" x="217.5" y="69.9951">:WebBrowser</text><rect fill="#222222" height="30.2969" rx="2.5" ry="2.5" style="stroke:#E7E7E7;stroke-width:0.5;" width="110" x="210.5" y="2170.5"/><text fill="#FFFFFF" font-family="sans-serif" font-size="14" lengthAdjust="spacing" textLength="96" x="217.5" y="2190.4951">:WebBrowser</text><rect fill="#222222" height="30.2969" rx="2.5" ry="2.5" style="stroke:#E7E7E7;stroke-width:0.5;" width="102" x="459.5" y="50"/><text fill="#FFFFFF" font-family="sans-serif" font-size="14" lengthAdjust="spacing" textLength="88" x="466.5" y="69.9951">:Application</text><rect fill="#222222" height="30.2969" rx="2.5" ry="2.5" style="stroke:#E7E7E7;stroke-width:0.5;" width="102" x="459.5" y="2170.5"/><text fill="#FFFFFF" font-family="sans-serif" font-size="14" lengthAdjust="spacing" textLength="88" x="466.5" y="2190.4951">:Application</text><rect fill="#222222" height="46.5938" rx="2.5" ry="2.5" style="stroke:#E7E7E7;stroke-width:0.5;" width="100" x="571.5" y="2170.5"/><text fill="#FFFFFF" font-family="sans-serif" font-size="14" lengthAdjust="spacing" textLength="86" x="578.5" y="2190.4951">«javascript»</text><text fill="#FFFFFF" font-family="sans-serif" font-size="14" lengthAdjust="spacing" textLength="47" x="598" y="2206.792">:Event</text><rect fill="#222222" height="46.5938" rx="2.5" ry="2.5" style="stroke:#E7E7E7;stroke-width:0.5;" width="142" x="681.5" y="2170.5"/><text fill="#FFFFFF" font-family="sans-serif" font-size="14" lengthAdjust="spacing" textLength="86" x="709.5" y="2190.4951">«javascript»</text><text fill="#FFFFFF" font-family="sans-serif" font-size="14" lengthAdjust="spacing" textLength="128" x="688.5" y="2206.792">:PasswordOptions</text><rect fill="#222222" height="46.5938" rx="2.5" ry="2.5" style="stroke:#E7E7E7;stroke-width:0.5;" width="100" x="833.5" y="2170.5"/><text fill="#FFFFFF" font-family="sans-serif" font-size="14" lengthAdjust="spacing" textLength="86" x="840.5" y="2190.4951">«javascript»</text><text fill="#FFFFFF" font-family="sans-serif" font-size="14" lengthAdjust="spacing" textLength="71" x="848" y="2206.792">:Password</text><rect fill="#222222" height="46.5938" rx="2.5" ry="2.5" style="stroke:#E7E7E7;stroke-width:0.5;" width="100" x="943.5" y="2170.5"/><text fill="#FFFFFF" font-family="sans-serif" font-size="14" lengthAdjust="spacing" textLength="86" x="950.5" y="2190.4951">«javascript»</text><text fill="#FFFFFF" font-family="sans-serif" font-size="14" lengthAdjust="spacing" textLength="41" x="973" y="2206.792">:Math</text><rect fill="#222222" height="46.5938" rx="2.5" ry="2.5" style="stroke:#E7E7E7;stroke-width:0.5;" width="100" x="1053.5" y="2170.5"/><text fill="#FFFFFF" font-family="sans-serif" font-size="14" lengthAdjust="spacing" textLength="86" x="1060.5" y="2190.4951">«javascript»</text><text fill="#FFFFFF" font-family="sans-serif" font-size="14" lengthAdjust="spacing" textLength="39" x="1084" y="2206.792">:DOM</text><rect fill="#000000" height="2041.0703" style="stroke:#E7E7E7;stroke-width:1.0;" width="10" x="43.5" y="112.4297"/><rect fill="#000000" height="2041.0703" style="stroke:#E7E7E7;stroke-width:1.0;" width="10" x="260.5" y="112.4297"/><rect fill="#000000" height="1911.2109" style="stroke:#E7E7E7;stroke-width:1.0;" width="10" x="505.5" y="242.2891"/><polygon fill="#E7E7E7" points="248.5,108.4297,258.5,112.4297,248.5,116.4297,252.5,112.4297" style="stroke:#E7E7E7;stroke-width:1.0;"/><line style="stroke:#E7E7E7;stroke-width:1.0;" x1="53.5" x2="254.5" y1="112.4297" y2="112.4297"/><text fill="#FFFFFF" font-family="sans-serif" font-size="13" lengthAdjust="spacing" textLength="159" x="60.5" y="107.3638">Click Generate Password</text><rect fill="#111111" height="3" style="stroke:#111111;stroke-width:1.0;" width="1483.5" x="0" y="140.9961"/><line style="stroke:#FFFFFF;stroke-width:1.0;" x1="0" x2="1483.5" y1="140.9961" y2="140.9961"/><line style="stroke:#FFFFFF;stroke-width:1.0;" x1="0" x2="1483.5" y1="143.9961" y2="143.9961"/><rect fill="#111111" height="23.1328" style="stroke:#FFFFFF;stroke-width:2.0;" width="135" x="674.25" y="130.4297"/><text fill="#FFFFFF" font-family="sans-serif" font-size="13" font-weight="bold" lengthAdjust="spacing" textLength="116" x="680.25" y="146.4966">Input Interface</text><polygon fill="#E7E7E7" points="559.5,180.6953,569.5,184.6953,559.5,188.6953,563.5,184.6953" style="stroke:#E7E7E7;stroke-width:1.0;"/><line style="stroke:#E7E7E7;stroke-width:1.0;stroke-dasharray:2.0,2.0;" x1="270.5" x2="565.5" y1="184.6953" y2="184.6953"/><text fill="#FFFFFF" font-family="sans-serif" font-size="13" lengthAdjust="spacing" textLength="53" x="277.5" y="179.6294">«event»</text><rect fill="#222222" height="46.5938" rx="2.5" ry="2.5" style="stroke:#E7E7E7;stroke-width:0.5;" width="100" x="571.5" y="163.5625"/><text fill="#FFFFFF" font-family="sans-serif" font-size="14" lengthAdjust="spacing" textLength="86" x="578.5" y="183.5576">«javascript»</text><text fill="#FFFFFF" font-family="sans-serif" font-size="14" lengthAdjust="spacing" textLength="47" x="598" y="199.8545">:Event</text><polygon fill="#E7E7E7" points="526.5,238.2891,516.5,242.2891,526.5,246.2891,522.5,242.2891" style="stroke:#E7E7E7;stroke-width:1.0;"/><line style="stroke:#E7E7E7;stroke-width:1.0;" x1="520.5" x2="620.5" y1="242.2891" y2="242.2891"/><text fill="#FFFFFF" font-family="sans-serif" font-size="13" lengthAdjust="spacing" textLength="43" x="532.5" y="237.2231">«bind»</text><line style="stroke:#A80036;stroke-width:2.0;" x1="612.5" x2="630.5" y1="263.2891" y2="281.2891"/><line style="stroke:#A80036;stroke-width:2.0;" x1="612.5" x2="630.5" y1="281.2891" y2="263.2891"/><polygon fill="#E7E7E7" points="669.5,297.4219,679.5,301.4219,669.5,305.4219,673.5,301.4219" style="stroke:#E7E7E7;stroke-width:1.0;"/><line style="stroke:#E7E7E7;stroke-width:1.0;stroke-dasharray:2.0,2.0;" x1="515.5" x2="675.5" y1="301.4219" y2="301.4219"/><text fill="#FFFFFF" font-family="sans-serif" font-size="13" lengthAdjust="spacing" textLength="57" x="522.5" y="296.356">«create»</text><rect fill="#222222" height="46.5938" rx="2.5" ry="2.5" style="stroke:#E7E7E7;stroke-width:0.5;" width="142" x="681.5" y="280.2891"/><text fill="#FFFFFF" font-family="sans-serif" font-size="14" lengthAdjust="spacing" textLength="86" x="709.5" y="300.2842">«javascript»</text><text fill="#FFFFFF" font-family="sans-serif" font-size="14" lengthAdjust="spacing" textLength="128" x="688.5" y="316.5811">:PasswordOptions</text><path d="M10,344.8828 L225,344.8828 L225,352.0156 L215,362.0156 L10,362.0156 L10,344.8828 " fill="#555555" style="stroke:#FFFFFF;stroke-width:1.5;"/><rect fill="none" height="1007.9141" style="stroke:#FFFFFF;stroke-width:1.5;" width="843.5" x="10" y="344.8828"/><text fill="#FFFFFF" font-family="sans-serif" font-size="13" font-weight="bold" lengthAdjust="spacing" textLength="170" x="25" y="357.9497">getPasswordOptions()</text><path d="M20,369.0156 L98,369.0156 L98,376.1484 L88,386.1484 L20,386.1484 L20,369.0156 " fill="#555555" style="stroke:#FFFFFF;stroke-width:1.5;"/><rect fill="none" height="133.6641" style="stroke:#FFFFFF;stroke-width:1.5;" width="551.5" x="20" y="369.0156"/><text fill="#FFFFFF" font-family="sans-serif" font-size="13" font-weight="bold" lengthAdjust="spacing" textLength="33" x="35" y="382.0825">loop</text><text fill="#FFFFFF" font-family="sans-serif" font-size="11" font-weight="bold" lengthAdjust="spacing" textLength="278" x="113" y="381.2261">[password length not between 10 and 64]</text><polygon fill="#E7E7E7" points="281.5,403.2813,271.5,407.2813,281.5,411.2813,277.5,407.2813" style="stroke:#E7E7E7;stroke-width:1.0;"/><line style="stroke:#E7E7E7;stroke-width:1.0;stroke-dasharray:2.0,2.0;" x1="275.5" x2="504.5" y1="407.2813" y2="407.2813"/><text fill="#FFFFFF" font-family="sans-serif" font-size="13" lengthAdjust="spacing" textLength="163" x="287.5" y="402.2153">Request password length</text><polygon fill="#E7E7E7" points="64.5,432.4141,54.5,436.4141,64.5,440.4141,60.5,436.4141" style="stroke:#E7E7E7;stroke-width:1.0;"/><line style="stroke:#E7E7E7;stroke-width:1.0;stroke-dasharray:2.0,2.0;" x1="58.5" x2="259.5" y1="436.4141" y2="436.4141"/><text fill="#FFFFFF" font-family="sans-serif" font-size="13" lengthAdjust="spacing" textLength="116" x="70.5" y="431.3481">«prompt window»</text><polygon fill="#E7E7E7" points="248.5,461.5469,258.5,465.5469,248.5,469.5469,252.5,465.5469" style="stroke:#E7E7E7;stroke-width:1.0;"/><line style="stroke:#E7E7E7;stroke-width:1.0;" x1="53.5" x2="254.5" y1="465.5469" y2="465.5469"/><text fill="#FFFFFF" font-family="sans-serif" font-size="13" lengthAdjust="spacing" textLength="142" x="60.5" y="460.481">Input password length</text><polygon fill="#E7E7E7" points="493.5,490.6797,503.5,494.6797,493.5,498.6797,497.5,494.6797" style="stroke:#E7E7E7;stroke-width:1.0;"/><line style="stroke:#E7E7E7;stroke-width:1.0;" x1="270.5" x2="499.5" y1="494.6797" y2="494.6797"/><text fill="#FFFFFF" font-family="sans-serif" font-size="13" lengthAdjust="spacing" textLength="106" x="277.5" y="489.6138">password length</text><polygon fill="#E7E7E7" points="740.5,541.9453,750.5,545.9453,740.5,549.9453,744.5,545.9453" style="stroke:#E7E7E7;stroke-width:1.0;"/><line style="stroke:#E7E7E7;stroke-width:1.0;" x1="515.5" x2="746.5" y1="545.9453" y2="545.9453"/><text fill="#FFFFFF" font-family="sans-serif" font-size="13" lengthAdjust="spacing" textLength="49" x="522.5" y="525.7466">«store»</text><text fill="#FFFFFF" font-family="sans-serif" font-size="13" lengthAdjust="spacing" textLength="106" x="526.5" y="540.8794">password length</text><path d="M20,560.9453 L98,560.9453 L98,568.0781 L88,578.0781 L20,578.0781 L20,560.9453 " fill="#555555" style="stroke:#FFFFFF;stroke-width:1.5;"/><rect fill="none" height="784.8516" style="stroke:#FFFFFF;stroke-width:1.5;" width="823.5" x="20" y="560.9453"/><text fill="#FFFFFF" font-family="sans-serif" font-size="13" font-weight="bold" lengthAdjust="spacing" textLength="33" x="35" y="574.0122">loop</text><text fill="#FFFFFF" font-family="sans-serif" font-size="11" font-weight="bold" lengthAdjust="spacing" textLength="188" x="113" y="573.1558">[no character types chosen]</text><polygon fill="#E7E7E7" points="281.5,595.2109,271.5,599.2109,281.5,603.2109,277.5,599.2109" style="stroke:#E7E7E7;stroke-width:1.0;"/><line style="stroke:#E7E7E7;stroke-width:1.0;stroke-dasharray:2.0,2.0;" x1="275.5" x2="504.5" y1="599.2109" y2="599.2109"/><text fill="#FFFFFF" font-family="sans-serif" font-size="13" lengthAdjust="spacing" textLength="176" x="287.5" y="594.145">Include special characters ?</text><polygon fill="#E7E7E7" points="64.5,624.3438,54.5,628.3438,64.5,632.3438,60.5,628.3438" style="stroke:#E7E7E7;stroke-width:1.0;"/><line style="stroke:#E7E7E7;stroke-width:1.0;stroke-dasharray:2.0,2.0;" x1="58.5" x2="259.5" y1="628.3438" y2="628.3438"/><text fill="#FFFFFF" font-family="sans-serif" font-size="13" lengthAdjust="spacing" textLength="118" x="70.5" y="623.2778">«confirm window»</text><polygon fill="#E7E7E7" points="248.5,653.4766,258.5,657.4766,248.5,661.4766,252.5,657.4766" style="stroke:#E7E7E7;stroke-width:1.0;"/><line style="stroke:#E7E7E7;stroke-width:1.0;" x1="53.5" x2="254.5" y1="657.4766" y2="657.4766"/><text fill="#FFFFFF" font-family="sans-serif" font-size="13" lengthAdjust="spacing" textLength="132" x="60.5" y="652.4106">Press confirm option</text><polygon fill="#E7E7E7" points="493.5,682.6094,503.5,686.6094,493.5,690.6094,497.5,686.6094" style="stroke:#E7E7E7;stroke-width:1.0;"/><line style="stroke:#E7E7E7;stroke-width:1.0;" x1="270.5" x2="499.5" y1="686.6094" y2="686.6094"/><text fill="#FFFFFF" font-family="sans-serif" font-size="13" lengthAdjust="spacing" textLength="144" x="277.5" y="681.5435">special characters flag</text><path d="M449.5,701.6094 L515.5,701.6094 L515.5,708.7422 L505.5,718.7422 L449.5,718.7422 L449.5,701.6094 " fill="#555555" style="stroke:#FFFFFF;stroke-width:1.5;"/><rect fill="none" height="61.3984" style="stroke:#FFFFFF;stroke-width:1.5;" width="384" x="449.5" y="701.6094"/><text fill="#FFFFFF" font-family="sans-serif" font-size="13" font-weight="bold" lengthAdjust="spacing" textLength="21" x="464.5" y="714.6763">alt</text><text fill="#FFFFFF" font-family="sans-serif" font-size="11" font-weight="bold" lengthAdjust="spacing" textLength="213" x="530.5" y="713.8198">[special characters flag is True]</text><polygon fill="#E7E7E7" points="740.5,751.0078,750.5,755.0078,740.5,759.0078,744.5,755.0078" style="stroke:#E7E7E7;stroke-width:1.0;"/><line style="stroke:#E7E7E7;stroke-width:1.0;" x1="515.5" x2="746.5" y1="755.0078" y2="755.0078"/><text fill="#FFFFFF" font-family="sans-serif" font-size="13" lengthAdjust="spacing" textLength="49" x="522.5" y="734.8091">«store»</text><text fill="#FFFFFF" font-family="sans-serif" font-size="13" lengthAdjust="spacing" textLength="116" x="526.5" y="749.9419">special characters</text><polygon fill="#E7E7E7" points="281.5,787.1406,271.5,791.1406,281.5,795.1406,277.5,791.1406" style="stroke:#E7E7E7;stroke-width:1.0;"/><line style="stroke:#E7E7E7;stroke-width:1.0;stroke-dasharray:2.0,2.0;" x1="275.5" x2="504.5" y1="791.1406" y2="791.1406"/><text fill="#FFFFFF" font-family="sans-serif" font-size="13" lengthAdjust="spacing" textLength="184" x="287.5" y="786.0747">Include numeric characters ?</text><polygon fill="#E7E7E7" points="64.5,816.2734,54.5,820.2734,64.5,824.2734,60.5,820.2734" style="stroke:#E7E7E7;stroke-width:1.0;"/><line style="stroke:#E7E7E7;stroke-width:1.0;stroke-dasharray:2.0,2.0;" x1="58.5" x2="259.5" y1="820.2734" y2="820.2734"/><text fill="#FFFFFF" font-family="sans-serif" font-size="13" lengthAdjust="spacing" textLength="118" x="70.5" y="815.2075">«confirm window»</text><polygon fill="#E7E7E7" points="248.5,845.4063,258.5,849.4063,248.5,853.4063,252.5,849.4063" style="stroke:#E7E7E7;stroke-width:1.0;"/><line style="stroke:#E7E7E7;stroke-width:1.0;" x1="53.5" x2="254.5" y1="849.4063" y2="849.4063"/><text fill="#FFFFFF" font-family="sans-serif" font-size="13" lengthAdjust="spacing" textLength="132" x="60.5" y="844.3403">Press confirm option</text><polygon fill="#E7E7E7" points="493.5,874.5391,503.5,878.5391,493.5,882.5391,497.5,878.5391" style="stroke:#E7E7E7;stroke-width:1.0;"/><line style="stroke:#E7E7E7;stroke-width:1.0;" x1="270.5" x2="499.5" y1="878.5391" y2="878.5391"/><text fill="#FFFFFF" font-family="sans-serif" font-size="13" lengthAdjust="spacing" textLength="152" x="277.5" y="873.4731">numeric characters flag</text><path d="M449.5,893.5391 L515.5,893.5391 L515.5,900.6719 L505.5,910.6719 L449.5,910.6719 L449.5,893.5391 " fill="#555555" style="stroke:#FFFFFF;stroke-width:1.5;"/><rect fill="none" height="61.3984" style="stroke:#FFFFFF;stroke-width:1.5;" width="384" x="449.5" y="893.5391"/><text fill="#FFFFFF" font-family="sans-serif" font-size="13" font-weight="bold" lengthAdjust="spacing" textLength="21" x="464.5" y="906.606">alt</text><text fill="#FFFFFF" font-family="sans-serif" font-size="11" font-weight="bold" lengthAdjust="spacing" textLength="220" x="530.5" y="905.7495">[numeric characters flag is True]</text><polygon fill="#E7E7E7" points="740.5,942.9375,750.5,946.9375,740.5,950.9375,744.5,946.9375" style="stroke:#E7E7E7;stroke-width:1.0;"/><line style="stroke:#E7E7E7;stroke-width:1.0;" x1="515.5" x2="746.5" y1="946.9375" y2="946.9375"/><text fill="#FFFFFF" font-family="sans-serif" font-size="13" lengthAdjust="spacing" textLength="49" x="522.5" y="926.7388">«store»</text><text fill="#FFFFFF" font-family="sans-serif" font-size="13" lengthAdjust="spacing" textLength="124" x="526.5" y="941.8716">numeric characters</text><polygon fill="#E7E7E7" points="281.5,979.0703,271.5,983.0703,281.5,987.0703,277.5,983.0703" style="stroke:#E7E7E7;stroke-width:1.0;"/><line style="stroke:#E7E7E7;stroke-width:1.0;stroke-dasharray:2.0,2.0;" x1="275.5" x2="504.5" y1="983.0703" y2="983.0703"/><text fill="#FFFFFF" font-family="sans-serif" font-size="13" lengthAdjust="spacing" textLength="209" x="287.5" y="978.0044">Include lower cased characters ?</text><polygon fill="#E7E7E7" points="64.5,1008.2031,54.5,1012.2031,64.5,1016.2031,60.5,1012.2031" style="stroke:#E7E7E7;stroke-width:1.0;"/><line style="stroke:#E7E7E7;stroke-width:1.0;stroke-dasharray:2.0,2.0;" x1="58.5" x2="259.5" y1="1012.2031" y2="1012.2031"/><text fill="#FFFFFF" font-family="sans-serif" font-size="13" lengthAdjust="spacing" textLength="118" x="70.5" y="1007.1372">«confirm window»</text><polygon fill="#E7E7E7" points="248.5,1037.3359,258.5,1041.3359,248.5,1045.3359,252.5,1041.3359" style="stroke:#E7E7E7;stroke-width:1.0;"/><line style="stroke:#E7E7E7;stroke-width:1.0;" x1="53.5" x2="254.5" y1="1041.3359" y2="1041.3359"/><text fill="#FFFFFF" font-family="sans-serif" font-size="13" lengthAdjust="spacing" textLength="132" x="60.5" y="1036.27">Press confirm option</text><polygon fill="#E7E7E7" points="493.5,1066.4688,503.5,1070.4688,493.5,1074.4688,497.5,1070.4688" style="stroke:#E7E7E7;stroke-width:1.0;"/><line style="stroke:#E7E7E7;stroke-width:1.0;" x1="270.5" x2="499.5" y1="1070.4688" y2="1070.4688"/><text fill="#FFFFFF" font-family="sans-serif" font-size="13" lengthAdjust="spacing" textLength="177" x="277.5" y="1065.4028">lower cased characters flag</text><path d="M449.5,1085.4688 L515.5,1085.4688 L515.5,1092.6016 L505.5,1102.6016 L449.5,1102.6016 L449.5,1085.4688 " fill="#555555" style="stroke:#FFFFFF;stroke-width:1.5;"/><rect fill="none" height="61.3984" style="stroke:#FFFFFF;stroke-width:1.5;" width="384" x="449.5" y="1085.4688"/><text fill="#FFFFFF" font-family="sans-serif" font-size="13" font-weight="bold" lengthAdjust="spacing" textLength="21" x="464.5" y="1098.5356">alt</text><text fill="#FFFFFF" font-family="sans-serif" font-size="11" font-weight="bold" lengthAdjust="spacing" textLength="246" x="530.5" y="1097.6792">[lower cased characters flag is True]</text><polygon fill="#E7E7E7" points="740.5,1134.8672,750.5,1138.8672,740.5,1142.8672,744.5,1138.8672" style="stroke:#E7E7E7;stroke-width:1.0;"/><line style="stroke:#E7E7E7;stroke-width:1.0;" x1="515.5" x2="746.5" y1="1138.8672" y2="1138.8672"/><text fill="#FFFFFF" font-family="sans-serif" font-size="13" lengthAdjust="spacing" textLength="49" x="522.5" y="1118.6685">«store»</text><text fill="#FFFFFF" font-family="sans-serif" font-size="13" lengthAdjust="spacing" textLength="149" x="526.5" y="1133.8013">lower cased characters</text><polygon fill="#E7E7E7" points="281.5,1171,271.5,1175,281.5,1179,277.5,1175" style="stroke:#E7E7E7;stroke-width:1.0;"/><line style="stroke:#E7E7E7;stroke-width:1.0;stroke-dasharray:2.0,2.0;" x1="275.5" x2="504.5" y1="1175" y2="1175"/><text fill="#FFFFFF" font-family="sans-serif" font-size="13" lengthAdjust="spacing" textLength="211" x="287.5" y="1169.9341">Include upper cased characters ?</text><polygon fill="#E7E7E7" points="64.5,1200.1328,54.5,1204.1328,64.5,1208.1328,60.5,1204.1328" style="stroke:#E7E7E7;stroke-width:1.0;"/><line style="stroke:#E7E7E7;stroke-width:1.0;stroke-dasharray:2.0,2.0;" x1="58.5" x2="259.5" y1="1204.1328" y2="1204.1328"/><text fill="#FFFFFF" font-family="sans-serif" font-size="13" lengthAdjust="spacing" textLength="118" x="70.5" y="1199.0669">«confirm window»</text><polygon fill="#E7E7E7" points="248.5,1229.2656,258.5,1233.2656,248.5,1237.2656,252.5,1233.2656" style="stroke:#E7E7E7;stroke-width:1.0;"/><line style="stroke:#E7E7E7;stroke-width:1.0;" x1="53.5" x2="254.5" y1="1233.2656" y2="1233.2656"/><text fill="#FFFFFF" font-family="sans-serif" font-size="13" lengthAdjust="spacing" textLength="132" x="60.5" y="1228.1997">Press confirm option</text><polygon fill="#E7E7E7" points="493.5,1258.3984,503.5,1262.3984,493.5,1266.3984,497.5,1262.3984" style="stroke:#E7E7E7;stroke-width:1.0;"/><line style="stroke:#E7E7E7;stroke-width:1.0;" x1="270.5" x2="499.5" y1="1262.3984" y2="1262.3984"/><text fill="#FFFFFF" font-family="sans-serif" font-size="13" lengthAdjust="spacing" textLength="179" x="277.5" y="1257.3325">upper cased characters flag</text><path d="M449.5,1277.3984 L515.5,1277.3984 L515.5,1284.5313 L505.5,1294.5313 L449.5,1294.5313 L449.5,1277.3984 " fill="#555555" style="stroke:#FFFFFF;stroke-width:1.5;"/><rect fill="none" height="61.3984" style="stroke:#FFFFFF;stroke-width:1.5;" width="384" x="449.5" y="1277.3984"/><text fill="#FFFFFF" font-family="sans-serif" font-size="13" font-weight="bold" lengthAdjust="spacing" textLength="21" x="464.5" y="1290.4653">alt</text><text fill="#FFFFFF" font-family="sans-serif" font-size="11" font-weight="bold" lengthAdjust="spacing" textLength="247" x="530.5" y="1289.6089">[upper cased characters flag is True]</text><polygon fill="#E7E7E7" points="740.5,1326.7969,750.5,1330.7969,740.5,1334.7969,744.5,1330.7969" style="stroke:#E7E7E7;stroke-width:1.0;"/><line style="stroke:#E7E7E7;stroke-width:1.0;" x1="515.5" x2="746.5" y1="1330.7969" y2="1330.7969"/><text fill="#FFFFFF" font-family="sans-serif" font-size="13" lengthAdjust="spacing" textLength="49" x="522.5" y="1310.5981">«store»</text><text fill="#FFFFFF" font-family="sans-serif" font-size="13" lengthAdjust="spacing" textLength="151" x="526.5" y="1325.731">upper cased characters</text><rect fill="#111111" height="3" style="stroke:#111111;stroke-width:1.0;" width="1483.5" x="0" y="1380.3633"/><line style="stroke:#FFFFFF;stroke-width:1.0;" x1="0" x2="1483.5" y1="1380.3633" y2="1380.3633"/><line style="stroke:#FFFFFF;stroke-width:1.0;" x1="0" x2="1483.5" y1="1383.3633" y2="1383.3633"/><rect fill="#111111" height="23.1328" style="stroke:#FFFFFF;stroke-width:2.0;" width="149" x="667.25" y="1369.7969"/><text fill="#FFFFFF" font-family="sans-serif" font-size="13" font-weight="bold" lengthAdjust="spacing" textLength="130" x="673.25" y="1385.8638">Output Interface</text><polygon fill="#E7E7E7" points="821.5,1420.0625,831.5,1424.0625,821.5,1428.0625,825.5,1424.0625" style="stroke:#E7E7E7;stroke-width:1.0;"/><line style="stroke:#E7E7E7;stroke-width:1.0;stroke-dasharray:2.0,2.0;" x1="515.5" x2="827.5" y1="1424.0625" y2="1424.0625"/><text fill="#FFFFFF" font-family="sans-serif" font-size="13" lengthAdjust="spacing" textLength="57" x="522.5" y="1418.9966">«create»</text><rect fill="#222222" height="46.5938" rx="2.5" ry="2.5" style="stroke:#E7E7E7;stroke-width:0.5;" width="100" x="833.5" y="1402.9297"/><text fill="#FFFFFF" font-family="sans-serif" font-size="14" lengthAdjust="spacing" textLength="86" x="840.5" y="1422.9248">«javascript»</text><text fill="#FFFFFF" font-family="sans-serif" font-size="14" lengthAdjust="spacing" textLength="71" x="848" y="1439.2217">:Password</text><path d="M429.5,1467.5234 L628.5,1467.5234 L628.5,1474.6563 L618.5,1484.6563 L429.5,1484.6563 L429.5,1467.5234 " fill="#555555" style="stroke:#FFFFFF;stroke-width:1.5;"/><rect fill="none" height="431.4531" style="stroke:#FFFFFF;stroke-width:1.5;" width="1044" x="429.5" y="1467.5234"/><text fill="#FFFFFF" font-family="sans-serif" font-size="13" font-weight="bold" lengthAdjust="spacing" textLength="154" x="444.5" y="1480.5903">generatePassword()</text><polygon fill="#E7E7E7" points="526.5,1501.7891,516.5,1505.7891,526.5,1509.7891,522.5,1505.7891" style="stroke:#E7E7E7;stroke-width:1.0;"/><line style="stroke:#E7E7E7;stroke-width:1.0;stroke-dasharray:2.0,2.0;" x1="520.5" x2="751.5" y1="1505.7891" y2="1505.7891"/><text fill="#FFFFFF" font-family="sans-serif" font-size="13" lengthAdjust="spacing" textLength="106" x="532.5" y="1500.7231">passwordLength</text><path d="M439.5,1520.7891 L517.5,1520.7891 L517.5,1527.9219 L507.5,1537.9219 L439.5,1537.9219 L439.5,1520.7891 " fill="#555555" style="stroke:#FFFFFF;stroke-width:1.5;"/><rect fill="none" height="371.1875" style="stroke:#FFFFFF;stroke-width:1.5;" width="1024" x="439.5" y="1520.7891"/><text fill="#FFFFFF" font-family="sans-serif" font-size="13" font-weight="bold" lengthAdjust="spacing" textLength="33" x="454.5" y="1533.856">loop</text><text fill="#FFFFFF" font-family="sans-serif" font-size="11" font-weight="bold" lengthAdjust="spacing" textLength="288" x="532.5" y="1532.9995">[password.length &lt; passwordLength times]</text><path d="M449.5,1544.9219 L593.5,1544.9219 L593.5,1552.0547 L583.5,1562.0547 L449.5,1562.0547 L449.5,1544.9219 " fill="#555555" style="stroke:#FFFFFF;stroke-width:1.5;"/><rect fill="none" height="198.3906" style="stroke:#FFFFFF;stroke-width:1.5;" width="1004" x="449.5" y="1544.9219"/><text fill="#FFFFFF" font-family="sans-serif" font-size="13" font-weight="bold" lengthAdjust="spacing" textLength="99" x="464.5" y="1557.9888">getRandom()</text><polygon fill="#E7E7E7" points="931.5,1579.1875,941.5,1583.1875,931.5,1587.1875,935.5,1583.1875" style="stroke:#E7E7E7;stroke-width:1.0;"/><line style="stroke:#E7E7E7;stroke-width:1.0;" x1="515.5" x2="937.5" y1="1583.1875" y2="1583.1875"/><text fill="#FFFFFF" font-family="sans-serif" font-size="13" lengthAdjust="spacing" textLength="60" x="522.5" y="1578.1216">random()</text><rect fill="#222222" height="46.5938" rx="2.5" ry="2.5" style="stroke:#E7E7E7;stroke-width:0.5;" width="100" x="943.5" y="1562.0547"/><text fill="#FFFFFF" font-family="sans-serif" font-size="14" lengthAdjust="spacing" textLength="86" x="950.5" y="1582.0498">«javascript»</text><text fill="#FFFFFF" font-family="sans-serif" font-size="14" lengthAdjust="spacing" textLength="41" x="973" y="1598.3467">:Math</text><polygon fill="#E7E7E7" points="981.5,1636.7813,991.5,1640.7813,981.5,1644.7813,985.5,1640.7813" style="stroke:#E7E7E7;stroke-width:1.0;"/><line style="stroke:#E7E7E7;stroke-width:1.0;" x1="752.5" x2="987.5" y1="1640.7813" y2="1640.7813"/><text fill="#FFFFFF" font-family="sans-serif" font-size="13" lengthAdjust="spacing" textLength="144" x="759.5" y="1635.7153">characterTypes.length</text><polygon fill="#E7E7E7" points="981.5,1665.9141,991.5,1669.9141,981.5,1673.9141,985.5,1669.9141" style="stroke:#E7E7E7;stroke-width:1.0;"/><line style="stroke:#E7E7E7;stroke-width:1.0;" x1="515.5" x2="987.5" y1="1669.9141" y2="1669.9141"/><text fill="#FFFFFF" font-family="sans-serif" font-size="13" lengthAdjust="spacing" textLength="39" x="522.5" y="1664.8481">floor()</text><polygon fill="#E7E7E7" points="763.5,1713.1797,753.5,1717.1797,763.5,1721.1797,759.5,1717.1797" style="stroke:#E7E7E7;stroke-width:1.0;"/><line style="stroke:#E7E7E7;stroke-width:1.0;stroke-dasharray:2.0,2.0;" x1="757.5" x2="992.5" y1="1717.1797" y2="1717.1797"/><text fill="#FFFFFF" font-family="sans-serif" font-size="13" lengthAdjust="spacing" textLength="35" x="769.5" y="1712.1138">index</text><path d="M998,1682.9141 L998,1737.9141 L1438,1737.9141 L1438,1692.9141 L1428,1682.9141 L998,1682.9141 " fill="#714137" style="stroke:#E7E7E7;stroke-width:0.5;"/><path d="M1428,1682.9141 L1428,1692.9141 L1438,1692.9141 L1428,1682.9141 " fill="#714137" style="stroke:#E7E7E7;stroke-width:0.5;"/><text fill="#FFFFFF" font-family="sans-serif" font-size="13" font-weight="bold" lengthAdjust="spacing" textLength="419" x="1004" y="1699.981">Math.floor( Math.random() * (characterTypes.length) )</text><text fill="#FFFFFF" font-family="sans-serif" font-size="13" lengthAdjust="spacing" textLength="58" x="1004" y="1715.1138">returns a</text><text fill="#FFFFFF" font-family="sans-serif" font-size="13" font-weight="bold" lengthAdjust="spacing" textLength="102" x="1066" y="1715.1138">random index</text><text fill="#FFFFFF" font-family="sans-serif" font-size="13" lengthAdjust="spacing" textLength="4" x="1168" y="1715.1138"> </text><text fill="#FFFFFF" font-family="sans-serif" font-size="13" lengthAdjust="spacing" textLength="275" x="1004" y="1730.2466">between 0 and (characterTypes.length - 1)</text><line style="stroke:#A80036;stroke-width:2.0;" x1="984.5" x2="1002.5" y1="1750.3125" y2="1768.3125"/><line style="stroke:#A80036;stroke-width:2.0;" x1="984.5" x2="1002.5" y1="1768.3125" y2="1750.3125"/><polygon fill="#E7E7E7" points="871.5,1803.5781,881.5,1807.5781,871.5,1811.5781,875.5,1807.5781" style="stroke:#E7E7E7;stroke-width:1.0;"/><line style="stroke:#E7E7E7;stroke-width:1.0;stroke-dasharray:2.0,2.0;" x1="752.5" x2="877.5" y1="1807.5781" y2="1807.5781"/><text fill="#FFFFFF" font-family="sans-serif" font-size="13" lengthAdjust="spacing" textLength="93" x="759.5" y="1802.5122">characterType</text><path d="M888,1773.3125 L888,1828.3125 L1179,1828.3125 L1179,1783.3125 L1169,1773.3125 L888,1773.3125 " fill="#714137" style="stroke:#E7E7E7;stroke-width:0.5;"/><path d="M1169,1773.3125 L1169,1783.3125 L1179,1783.3125 L1169,1773.3125 " fill="#714137" style="stroke:#E7E7E7;stroke-width:0.5;"/><text fill="#FFFFFF" font-family="sans-serif" font-size="13" font-weight="bold" lengthAdjust="spacing" textLength="170" x="894" y="1790.3794">characterTypes[index]</text><text fill="#FFFFFF" font-family="sans-serif" font-size="13" lengthAdjust="spacing" textLength="58" x="894" y="1805.5122">returns a</text><text fill="#FFFFFF" font-family="sans-serif" font-size="13" font-weight="bold" lengthAdjust="spacing" textLength="111" x="956" y="1805.5122">characterType</text><text fill="#FFFFFF" font-family="sans-serif" font-size="13" lengthAdjust="spacing" textLength="4" x="1067" y="1805.5122"> </text><text fill="#FFFFFF" font-family="sans-serif" font-size="13" lengthAdjust="spacing" textLength="270" x="894" y="1820.645">from characterTypes at the index position</text><polygon fill="#E7E7E7" points="871.5,1850.8438,881.5,1854.8438,871.5,1858.8438,875.5,1854.8438" style="stroke:#E7E7E7;stroke-width:1.0;"/><line style="stroke:#E7E7E7;stroke-width:1.0;" x1="515.5" x2="877.5" y1="1854.8438" y2="1854.8438"/><text fill="#FFFFFF" font-family="sans-serif" font-size="13" lengthAdjust="spacing" textLength="53" x="522.5" y="1849.7778">concat()</text><polygon fill="#E7E7E7" points="526.5,1879.9766,516.5,1883.9766,526.5,1887.9766,522.5,1883.9766" style="stroke:#E7E7E7;stroke-width:1.0;"/><line style="stroke:#E7E7E7;stroke-width:1.0;stroke-dasharray:2.0,2.0;" x1="520.5" x2="882.5" y1="1883.9766" y2="1883.9766"/><text fill="#FFFFFF" font-family="sans-serif" font-size="13" lengthAdjust="spacing" textLength="106" x="532.5" y="1878.9106">password.length</text><path d="M200.5,1912.9766 L370.5,1912.9766 L370.5,1920.1094 L360.5,1930.1094 L200.5,1930.1094 L200.5,1912.9766 " fill="#555555" style="stroke:#FFFFFF;stroke-width:1.5;"/><rect fill="none" height="183.2578" style="stroke:#FFFFFF;stroke-width:1.5;" width="1271" x="200.5" y="1912.9766"/><text fill="#FFFFFF" font-family="sans-serif" font-size="13" font-weight="bold" lengthAdjust="spacing" textLength="125" x="215.5" y="1926.0435">writePassword()</text><polygon fill="#E7E7E7" points="281.5,1947.2422,271.5,1951.2422,281.5,1955.2422,277.5,1951.2422" style="stroke:#E7E7E7;stroke-width:1.0;"/><line style="stroke:#E7E7E7;stroke-width:1.0;" x1="275.5" x2="504.5" y1="1951.2422" y2="1951.2422"/><text fill="#FFFFFF" font-family="sans-serif" font-size="13" lengthAdjust="spacing" textLength="187" x="287.5" y="1946.1763">Request #password element</text><polygon fill="#E7E7E7" points="1041.5,1976.375,1051.5,1980.375,1041.5,1984.375,1045.5,1980.375" style="stroke:#E7E7E7;stroke-width:1.0;"/><line style="stroke:#E7E7E7;stroke-width:1.0;stroke-dasharray:2.0,2.0;" x1="270.5" x2="1047.5" y1="1980.375" y2="1980.375"/><text fill="#FFFFFF" font-family="sans-serif" font-size="13" lengthAdjust="spacing" textLength="57" x="277.5" y="1975.3091">«create»</text><rect fill="#222222" height="46.5938" rx="2.5" ry="2.5" style="stroke:#E7E7E7;stroke-width:0.5;" width="100" x="1053.5" y="1959.2422"/><text fill="#FFFFFF" font-family="sans-serif" font-size="14" lengthAdjust="spacing" textLength="86" x="1060.5" y="1979.2373">«javascript»</text><text fill="#FFFFFF" font-family="sans-serif" font-size="14" lengthAdjust="spacing" textLength="39" x="1084" y="1995.5342">:DOM</text><polygon fill="#E7E7E7" points="1091.5,2044.5352,1101.5,2048.5352,1091.5,2052.5352,1095.5,2048.5352" style="stroke:#E7E7E7;stroke-width:1.0;"/><line style="stroke:#E7E7E7;stroke-width:1.0;" x1="883.5" x2="1097.5" y1="2048.5352" y2="2048.5352"/><text fill="#FFFFFF" font-family="sans-serif" font-size="13" lengthAdjust="spacing" textLength="62" x="890.5" y="2043.4692">password</text><path d="M1108,2021.8359 L1108,2061.8359 L1456,2061.8359 L1456,2031.8359 L1446,2021.8359 L1108,2021.8359 " fill="#714137" style="stroke:#E7E7E7;stroke-width:0.5;"/><path d="M1446,2021.8359 L1446,2031.8359 L1456,2031.8359 L1446,2021.8359 " fill="#714137" style="stroke:#E7E7E7;stroke-width:0.5;"/><text fill="#FFFFFF" font-family="sans-serif" font-size="13" font-weight="bold" lengthAdjust="spacing" textLength="244" x="1114" y="2038.9028">passwordText.value = password</text><text fill="#FFFFFF" font-family="sans-serif" font-size="13" lengthAdjust="spacing" textLength="327" x="1114" y="2054.0356">stores generated password into the DOM container</text><polygon fill="#E7E7E7" points="526.5,2084.2344,516.5,2088.2344,526.5,2092.2344,522.5,2088.2344" style="stroke:#E7E7E7;stroke-width:1.0;"/><line style="stroke:#E7E7E7;stroke-width:1.0;stroke-dasharray:2.0,2.0;" x1="520.5" x2="1102.5" y1="2088.2344" y2="2088.2344"/><text fill="#FFFFFF" font-family="sans-serif" font-size="13" lengthAdjust="spacing" textLength="148" x="532.5" y="2083.1685">passwordText element</text><polygon fill="#E7E7E7" points="281.5,2120.3672,271.5,2124.3672,281.5,2128.3672,277.5,2124.3672" style="stroke:#E7E7E7;stroke-width:1.0;"/><line style="stroke:#E7E7E7;stroke-width:1.0;stroke-dasharray:2.0,2.0;" x1="275.5" x2="504.5" y1="2124.3672" y2="2124.3672"/><text fill="#FFFFFF" font-family="sans-serif" font-size="13" lengthAdjust="spacing" textLength="184" x="287.5" y="2119.3013">Refresh #password element</text><polygon fill="#E7E7E7" points="59.5,2149.5,49.5,2153.5,59.5,2157.5,55.5,2153.5" style="stroke:#E7E7E7;stroke-width:1.0;"/><line style="stroke:#E7E7E7;stroke-width:1.0;stroke-dasharray:2.0,2.0;" x1="53.5" x2="264.5" y1="2153.5" y2="2153.5"/><text fill="#FFFFFF" font-family="sans-serif" font-size="13" lengthAdjust="spacing" textLength="183" x="65.5" y="2148.4341">Display password generated</text><!--SRC=[pLTBRzim3BxhLn3TfJMGO0M67OAamxOEGu4LBOeEEwmxg0wJQ7CaJPAJzj-FaX-9OZjrYXNefOqjFZv-f4YQfquP-6xHCCsD4wdGN3eu6lt0-qz6hUdWQEVaezQPIBaJIXunvbK7Pv7y23wJm1_uYX8DTmZNtDgrCbF6KoTM_armM3_5tjXa0XTIvux-EZGpdY9C9en5KWFoEHx3RxxYDZL2EpWxkvEZBokKxWYIP0HqYlw93bWCUZpeLWrwzq9ElTeMm2ZeALfdr2Dqcs4xBZlWLiHSQIzbQ-2fGU-M8B2vKRc6EReTsUCJ1f0ffK6N1v2XdBi5IENW7jqQKSBfM-0Ko_jt90mnp-F18COuWXlycrDe3Oj1sQSiw4IP9h3Qg2K5j2RIrDfZhgGRPL5aTSTw4vdNYu4rLL1E6OETnFGZEO2sLFQUOBYJ3UiLiL91kk26gW0Dk4UDbfwLHSbwiNaXqooV8bYDgU3PnfQ53_iPJPMS2RFiG-crGMjh1HL2xCDe2wXPnkT5P3npNG8WBDoQ78FSV-A_wIfOBrFSdsYPBz68z7KHtG8g9hf3u2M8Rhfw7j6PMjEDIBd5wUiYkmDOJFWUePSWlTtTyuZFjNwTn7S0YudV8_GInBUxsoRU_mi_QUEuobtRod704DytlOj5g9AasTsONJvplQAifjMtU5XLhuVbp1xl288JIxH5CkgTueQM0xKiuFJb_PAxHH6ggRHBvHxmzvWSRP9qwsVjS6izE03PYEf9ARCLKmzO7UIN1kdQu4DfZPOh12Fc2rU-0AB2omqBjn1-Lyn00iUjKPt0IPBK5Wowt4WBd6mLgeNF985QfjheYeMktIeCuBJA1jLr01itcdsRQuYsx4VxohntfKOOMIjxIH87yZF4_QlcPfkPI793pOpMpvtI0Ux0BR0W4RIoekvZDItiq3xZ0rAIHCk2F-ZwRjtRuMRBhFjFSI7NHZHxH3GOkXRsD_KAYnakwGDaLxMZTPrVNRPrhISAeDlM9ahMI7QIL6Ut-E26Avxbr6HhXJBbeO7RkcDEDykva4w5h98Zdmd71ScmEAMzaX8ZzMXgsa8sdlvCcX76HGlhh7q6dmkhC_wuYQKEZz6tPFTNPiS7yjQ1z_SF]--></g></svg>