<?xml version="1.0" encoding="UTF-8" standalone="no"?><svg xmlns="http://www.w3.org/2000/svg" xmlns:xlink="http://www.w3.org/1999/xlink" contentStyleType="text/css" height="1574px" preserveAspectRatio="none" style="width:475px;height:1574px;background:#000000;" version="1.1" viewBox="0 0 475 1574" width="475px" zoomAndPan="magnify"><defs/><g><ellipse cx="237.5" cy="20" fill="#DDDDDD" rx="10" ry="10" style="stroke:#DDDDDD;stroke-width:1.0;"/><polygon fill="#303030" points="130.5,50,344.5,50,354.5,66.9844,344.5,83.9688,130.5,83.9688" style="stroke:#E7E7E7;stroke-width:0.5;"/><text fill="#FFFFFF" font-family="sans-serif" font-size="12" lengthAdjust="spacing" textLength="47" x="140.5" y="71.1387">Click on</text><text fill="#FFFFFF" font-family="sans-serif" font-size="12" font-weight="bold" lengthAdjust="spacing" textLength="143" x="191.5" y="71.1387">Generate Password</text><rect fill="none" height="976.2164" style="stroke:#FFFFFF;stroke-width:1.5;" width="453" x="11" y="93.9688"/><path d="M129,93.9688 L129,103.2656 L119,113.2656 L11,113.2656 " fill="none" style="stroke:#FFFFFF;stroke-width:1.5;"/><text fill="#FFFFFF" font-family="sans-serif" font-size="14" lengthAdjust="spacing" textLength="108" x="14" y="107.9639">Input Interface</text><rect fill="#303030" height="34.4001" style="stroke:#E7E7E7;stroke-width:0.5;" width="159" x="158" y="184.6657"/><line style="stroke:#E7E7E7;stroke-width:0.5;" x1="163" x2="163" y1="184.6657" y2="219.0658"/><line style="stroke:#E7E7E7;stroke-width:0.5;" x1="312" x2="312" y1="184.6657" y2="219.0658"/><text fill="#FFFFFF" font-family="sans-serif" font-size="12" lengthAdjust="spacing" textLength="30" x="168" y="206.2357">Save</text><text fill="#FFFFFF" font-family="monospace" font-size="12" lengthAdjust="spacing" textLength="105" x="202" y="205.7778">password length</text><rect fill="#303030" height="34.4001" rx="12.5" ry="12.5" style="stroke:#E7E7E7;stroke-width:0.5;" width="198" x="138.5" y="130.2656"/><text fill="#FFFFFF" font-family="sans-serif" font-size="12" lengthAdjust="spacing" textLength="26" x="148.5" y="151.8356">Wait</text><text fill="#FFFFFF" font-family="monospace" font-size="12" lengthAdjust="spacing" textLength="105" x="178.5" y="151.3777">password length</text><text fill="#FFFFFF" font-family="sans-serif" font-size="12" lengthAdjust="spacing" textLength="39" x="287.5" y="151.8356">input ?</text><polygon fill="#303030" points="116.5,239.0658,358.5,239.0658,370.5,251.0658,358.5,263.0658,116.5,263.0658,104.5,251.0658,116.5,239.0658" style="stroke:#E7E7E7;stroke-width:0.5;"/><text fill="#FFFFFF" font-family="sans-serif" font-size="11" lengthAdjust="spacing" textLength="9" x="116.5" y="255.0715">Is</text><text fill="#FFFFFF" font-family="monospace" font-size="11" lengthAdjust="spacing" textLength="105" x="129.5" y="254.6518">password length</text><text fill="#FFFFFF" font-family="sans-serif" font-size="11" lengthAdjust="spacing" textLength="120" x="238.5" y="255.0715">10 to 64 characters ?</text><text fill="#FFFFFF" font-family="sans-serif" font-size="11" lengthAdjust="spacing" textLength="15" x="370.5" y="248.4716">No</text><rect fill="#303030" height="34.4001" rx="12.5" ry="12.5" style="stroke:#E7E7E7;stroke-width:0.5;" width="219" x="128" y="304.4648"/><text fill="#FFFFFF" font-family="sans-serif" font-size="12" lengthAdjust="spacing" textLength="20" x="138" y="326.0348">Set</text><text fill="#FFFFFF" font-family="monospace" font-size="12" lengthAdjust="spacing" textLength="133" x="162" y="325.5768">password characters</text><text fill="#FFFFFF" font-family="sans-serif" font-size="12" lengthAdjust="spacing" textLength="38" x="299" y="326.0348">empty</text><rect fill="#303030" height="34.4001" rx="12.5" ry="12.5" style="stroke:#E7E7E7;stroke-width:0.5;" width="337" x="69" y="462.9776"/><text fill="#FFFFFF" font-family="sans-serif" font-size="12" lengthAdjust="spacing" textLength="24" x="79" y="484.5477">Add</text><text fill="#FFFFFF" font-family="monospace" font-size="12" lengthAdjust="spacing" textLength="126" x="107" y="484.0897">special characters</text><text fill="#FFFFFF" font-family="sans-serif" font-size="12" lengthAdjust="spacing" textLength="22" x="237" y="484.5477">into</text><text fill="#FFFFFF" font-family="monospace" font-size="12" lengthAdjust="spacing" textLength="133" x="263" y="484.0897">password characters</text><polygon fill="#303030" points="147,414.5753,328,414.5753,340,426.5753,328,438.5753,147,438.5753,135,426.5753,147,414.5753" style="stroke:#E7E7E7;stroke-width:0.5;"/><text fill="#FFFFFF" font-family="sans-serif" font-size="11" lengthAdjust="spacing" textLength="21" x="241.5" y="448.7858">Yes</text><text fill="#FFFFFF" font-family="sans-serif" font-size="11" lengthAdjust="spacing" textLength="41" x="147" y="430.581">Include</text><text fill="#FFFFFF" font-family="monospace" font-size="11" lengthAdjust="spacing" textLength="126" x="192" y="430.1613">special characters</text><text fill="#FFFFFF" font-family="sans-serif" font-size="11" lengthAdjust="spacing" textLength="6" x="322" y="430.581">?</text><text fill="#FFFFFF" font-family="sans-serif" font-size="11" lengthAdjust="spacing" textLength="15" x="340" y="423.9811">No</text><polygon fill="#303030" points="237.5,517.3777,249.5,529.3777,237.5,541.3777,225.5,529.3777,237.5,517.3777" style="stroke:#E7E7E7;stroke-width:0.5;"/><rect fill="#303030" height="34.4001" rx="12.5" ry="12.5" style="stroke:#E7E7E7;stroke-width:0.5;" width="337" x="69" y="609.7801"/><text fill="#FFFFFF" font-family="sans-serif" font-size="12" lengthAdjust="spacing" textLength="24" x="79" y="631.3501">Add</text><text fill="#FFFFFF" font-family="monospace" font-size="12" lengthAdjust="spacing" textLength="126" x="107" y="630.8922">numeric characters</text><text fill="#FFFFFF" font-family="sans-serif" font-size="12" lengthAdjust="spacing" textLength="22" x="237" y="631.3501">into</text><text fill="#FFFFFF" font-family="monospace" font-size="12" lengthAdjust="spacing" textLength="133" x="263" y="630.8922">password characters</text><polygon fill="#303030" points="147,561.3777,328,561.3777,340,573.3777,328,585.3777,147,585.3777,135,573.3777,147,561.3777" style="stroke:#E7E7E7;stroke-width:0.5;"/><text fill="#FFFFFF" font-family="sans-serif" font-size="11" lengthAdjust="spacing" textLength="21" x="241.5" y="595.5882">Yes</text><text fill="#FFFFFF" font-family="sans-serif" font-size="11" lengthAdjust="spacing" textLength="41" x="147" y="577.3835">Include</text><text fill="#FFFFFF" font-family="monospace" font-size="11" lengthAdjust="spacing" textLength="126" x="192" y="576.9637">numeric characters</text><text fill="#FFFFFF" font-family="sans-serif" font-size="11" lengthAdjust="spacing" textLength="6" x="322" y="577.3835">?</text><text fill="#FFFFFF" font-family="sans-serif" font-size="11" lengthAdjust="spacing" textLength="15" x="340" y="570.7835">No</text><polygon fill="#303030" points="237.5,664.1802,249.5,676.1802,237.5,688.1802,225.5,676.1802,237.5,664.1802" style="stroke:#E7E7E7;stroke-width:0.5;"/><rect fill="#303030" height="34.4001" rx="12.5" ry="12.5" style="stroke:#E7E7E7;stroke-width:0.5;" width="365" x="55" y="756.5825"/><text fill="#FFFFFF" font-family="sans-serif" font-size="12" lengthAdjust="spacing" textLength="24" x="65" y="778.1526">Add</text><text fill="#FFFFFF" font-family="monospace" font-size="12" lengthAdjust="spacing" textLength="154" x="93" y="777.6946">lower cased characters</text><text fill="#FFFFFF" font-family="sans-serif" font-size="12" lengthAdjust="spacing" textLength="22" x="251" y="778.1526">into</text><text fill="#FFFFFF" font-family="monospace" font-size="12" lengthAdjust="spacing" textLength="133" x="277" y="777.6946">password characters</text><polygon fill="#303030" points="133,708.1802,342,708.1802,354,720.1802,342,732.1802,133,732.1802,121,720.1802,133,708.1802" style="stroke:#E7E7E7;stroke-width:0.5;"/><text fill="#FFFFFF" font-family="sans-serif" font-size="11" lengthAdjust="spacing" textLength="21" x="241.5" y="742.3906">Yes</text><text fill="#FFFFFF" font-family="sans-serif" font-size="11" lengthAdjust="spacing" textLength="41" x="133" y="724.1859">Include</text><text fill="#FFFFFF" font-family="monospace" font-size="11" lengthAdjust="spacing" textLength="154" x="178" y="723.7662">lower cased characters</text><text fill="#FFFFFF" font-family="sans-serif" font-size="11" lengthAdjust="spacing" textLength="6" x="336" y="724.1859">?</text><text fill="#FFFFFF" font-family="sans-serif" font-size="11" lengthAdjust="spacing" textLength="15" x="354" y="717.586">No</text><polygon fill="#303030" points="237.5,810.9826,249.5,822.9826,237.5,834.9826,225.5,822.9826,237.5,810.9826" style="stroke:#E7E7E7;stroke-width:0.5;"/><rect fill="#303030" height="34.4001" rx="12.5" ry="12.5" style="stroke:#E7E7E7;stroke-width:0.5;" width="365" x="55" y="903.385"/><text fill="#FFFFFF" font-family="sans-serif" font-size="12" lengthAdjust="spacing" textLength="24" x="65" y="924.955">Add</text><text fill="#FFFFFF" font-family="monospace" font-size="12" lengthAdjust="spacing" textLength="154" x="93" y="924.4971">upper cased characters</text><text fill="#FFFFFF" font-family="sans-serif" font-size="12" lengthAdjust="spacing" textLength="22" x="251" y="924.955">into</text><text fill="#FFFFFF" font-family="monospace" font-size="12" lengthAdjust="spacing" textLength="133" x="277" y="924.4971">password characters</text><polygon fill="#303030" points="133,854.9826,342,854.9826,354,866.9826,342,878.9826,133,878.9826,121,866.9826,133,854.9826" style="stroke:#E7E7E7;stroke-width:0.5;"/><text fill="#FFFFFF" font-family="sans-serif" font-size="11" lengthAdjust="spacing" textLength="21" x="241.5" y="889.1931">Yes</text><text fill="#FFFFFF" font-family="sans-serif" font-size="11" lengthAdjust="spacing" textLength="41" x="133" y="870.9883">Include</text><text fill="#FFFFFF" font-family="monospace" font-size="11" lengthAdjust="spacing" textLength="154" x="178" y="870.5686">upper cased characters</text><text fill="#FFFFFF" font-family="sans-serif" font-size="11" lengthAdjust="spacing" textLength="6" x="336" y="870.9883">?</text><text fill="#FFFFFF" font-family="sans-serif" font-size="11" lengthAdjust="spacing" textLength="15" x="354" y="864.3884">No</text><polygon fill="#303030" points="237.5,957.7851,249.5,969.7851,237.5,981.7851,225.5,969.7851,237.5,957.7851" style="stroke:#E7E7E7;stroke-width:0.5;"/><rect fill="#303030" height="34.4001" style="stroke:#E7E7E7;stroke-width:0.5;" width="187" x="144" y="1001.7851"/><line style="stroke:#E7E7E7;stroke-width:0.5;" x1="149" x2="149" y1="1001.7851" y2="1036.1852"/><line style="stroke:#E7E7E7;stroke-width:0.5;" x1="326" x2="326" y1="1001.7851" y2="1036.1852"/><text fill="#FFFFFF" font-family="sans-serif" font-size="12" lengthAdjust="spacing" textLength="30" x="154" y="1023.3551">Save</text><text fill="#FFFFFF" font-family="monospace" font-size="12" lengthAdjust="spacing" textLength="133" x="188" y="1022.8972">password characters</text><polygon fill="#303030" points="146.5,358.8649,328.5,358.8649,340.5,370.8649,328.5,382.8649,146.5,382.8649,134.5,370.8649,146.5,358.8649" style="stroke:#E7E7E7;stroke-width:0.5;"/><text fill="#FFFFFF" font-family="sans-serif" font-size="11" lengthAdjust="spacing" textLength="36" x="241.5" y="393.0753">Empty</text><text fill="#FFFFFF" font-family="sans-serif" font-size="11" lengthAdjust="spacing" textLength="35" x="146.5" y="374.8706">Check</text><text fill="#FFFFFF" font-family="monospace" font-size="11" lengthAdjust="spacing" textLength="133" x="185.5" y="374.4508">password characters</text><text fill="#FFFFFF" font-family="sans-serif" font-size="11" lengthAdjust="spacing" textLength="6" x="322.5" y="374.8706">?</text><text fill="#FFFFFF" font-family="sans-serif" font-size="11" lengthAdjust="spacing" textLength="59" x="75.5" y="368.2706">Not Empty</text><rect fill="none" height="387.1055" style="stroke:#FFFFFF;stroke-width:1.5;" width="396" x="38" y="1080.1852"/><path d="M169,1080.1852 L169,1089.4821 L159,1099.4821 L38,1099.4821 " fill="none" style="stroke:#FFFFFF;stroke-width:1.5;"/><text fill="#FFFFFF" font-family="sans-serif" font-size="14" lengthAdjust="spacing" textLength="121" x="41" y="1094.1803">Output Interface</text><rect fill="#303030" height="34.4001" style="stroke:#E7E7E7;stroke-width:0.5;" width="142" x="166.5" y="1116.4821"/><line style="stroke:#E7E7E7;stroke-width:0.5;" x1="171.5" x2="171.5" y1="1116.4821" y2="1150.8822"/><line style="stroke:#E7E7E7;stroke-width:0.5;" x1="303.5" x2="303.5" y1="1116.4821" y2="1150.8822"/><text fill="#FFFFFF" font-family="sans-serif" font-size="12" lengthAdjust="spacing" textLength="20" x="176.5" y="1138.0521">Set</text><text fill="#FFFFFF" font-family="monospace" font-size="12" lengthAdjust="spacing" textLength="56" x="200.5" y="1137.5941">password</text><text fill="#FFFFFF" font-family="sans-serif" font-size="12" lengthAdjust="spacing" textLength="38" x="260.5" y="1138.0521">empty</text><rect fill="#303030" height="34.4001" rx="12.5" ry="12.5" style="stroke:#E7E7E7;stroke-width:0.5;" width="136" x="169.5" y="1226.5926"/><text fill="#FFFFFF" font-family="sans-serif" font-size="12" lengthAdjust="spacing" textLength="77" x="179.5" y="1248.1626">Next random</text><text fill="#FFFFFF" font-family="monospace" font-size="12" lengthAdjust="spacing" textLength="35" x="260.5" y="1247.7047">index</text><rect fill="#303030" height="34.4001" rx="12.5" ry="12.5" style="stroke:#E7E7E7;stroke-width:0.5;" width="331" x="72" y="1280.9927"/><text fill="#FFFFFF" font-family="sans-serif" font-size="12" lengthAdjust="spacing" textLength="21" x="82" y="1302.5627">Get</text><text fill="#FFFFFF" font-family="monospace" font-size="12" lengthAdjust="spacing" textLength="63" x="107" y="1302.1048">character</text><text fill="#FFFFFF" font-family="sans-serif" font-size="12" lengthAdjust="spacing" textLength="28" x="174" y="1302.5627">from</text><text fill="#FFFFFF" font-family="monospace" font-size="12" lengthAdjust="spacing" textLength="133" x="206" y="1302.1048">password characters</text><text fill="#FFFFFF" font-family="sans-serif" font-size="12" lengthAdjust="spacing" textLength="11" x="343" y="1302.5627">at</text><text fill="#FFFFFF" font-family="monospace" font-size="12" lengthAdjust="spacing" textLength="35" x="358" y="1302.1048">index</text><rect fill="#303030" height="34.4001" rx="12.5" ry="12.5" style="stroke:#E7E7E7;stroke-width:0.5;" width="248" x="113.5" y="1344.4905"/><text fill="#FFFFFF" font-family="sans-serif" font-size="12" lengthAdjust="spacing" textLength="75" x="123.5" y="1366.0605">Concatenate</text><text fill="#FFFFFF" font-family="monospace" font-size="12" lengthAdjust="spacing" textLength="63" x="202.5" y="1365.6025">character</text><text fill="#FFFFFF" font-family="sans-serif" font-size="12" lengthAdjust="spacing" textLength="22" x="269.5" y="1366.0605">into</text><text fill="#FFFFFF" font-family="monospace" font-size="12" lengthAdjust="spacing" textLength="56" x="295.5" y="1365.6025">password</text><rect fill="#303030" height="34.4001" style="stroke:#E7E7E7;stroke-width:0.5;" width="110" x="182.5" y="1398.8906"/><line style="stroke:#E7E7E7;stroke-width:0.5;" x1="187.5" x2="187.5" y1="1398.8906" y2="1433.2907"/><line style="stroke:#E7E7E7;stroke-width:0.5;" x1="287.5" x2="287.5" y1="1398.8906" y2="1433.2907"/><text fill="#FFFFFF" font-family="sans-serif" font-size="12" lengthAdjust="spacing" textLength="30" x="192.5" y="1420.4606">Save</text><text fill="#FFFFFF" font-family="monospace" font-size="12" lengthAdjust="spacing" textLength="56" x="226.5" y="1420.0026">password</text><polygon fill="#303030" points="157.5,1170.8822,317.5,1170.8822,329.5,1182.8822,317.5,1194.8822,157.5,1194.8822,145.5,1182.8822,157.5,1170.8822" style="stroke:#E7E7E7;stroke-width:0.5;"/><text fill="#FFFFFF" font-family="sans-serif" font-size="11" lengthAdjust="spacing" textLength="19" x="241.5" y="1205.0926">Not</text><text fill="#FFFFFF" font-family="sans-serif" font-size="11" font-weight="bold" lengthAdjust="spacing" textLength="110" x="264.5" y="1205.0926">password length</text><text fill="#FFFFFF" font-family="sans-serif" font-size="11" lengthAdjust="spacing" textLength="90" x="157.5" y="1186.8879">Check length of</text><text fill="#FFFFFF" font-family="monospace" font-size="11" lengthAdjust="spacing" textLength="56" x="251.5" y="1186.4681">password</text><text fill="#FFFFFF" font-family="sans-serif" font-size="11" lengthAdjust="spacing" textLength="6" x="311.5" y="1186.8879">?</text><text fill="#FFFFFF" font-family="sans-serif" font-size="11" lengthAdjust="spacing" textLength="9" x="22.5" y="1180.2879">Is</text><text fill="#FFFFFF" font-family="sans-serif" font-size="11" font-weight="bold" lengthAdjust="spacing" textLength="110" x="35.5" y="1180.2879">password length</text><polygon fill="#303030" points="170.5,1487.2907,314.5,1487.2907,304.5,1504.275,314.5,1521.2594,170.5,1521.2594" style="stroke:#E7E7E7;stroke-width:0.5;"/><text fill="#FFFFFF" font-family="sans-serif" font-size="12" lengthAdjust="spacing" textLength="40" x="180.5" y="1508.4293">Output</text><text fill="#FFFFFF" font-family="sans-serif" font-size="12" font-weight="bold" lengthAdjust="spacing" textLength="70" x="224.5" y="1508.4293">password</text><ellipse cx="237.5" cy="1552.2594" fill="none" rx="11" ry="11" style="stroke:#DDDDDD;stroke-width:1.0;"/><ellipse cx="237.5" cy="1552.2594" fill="#DDDDDD" rx="6" ry="6" style="stroke:#6E6E6E;stroke-width:1.0;"/><line style="stroke:#E7E7E7;stroke-width:1.0;" x1="237.5" x2="237.5" y1="30" y2="50"/><polygon fill="#E7E7E7" points="233.5,40,237.5,50,241.5,40,237.5,44" style="stroke:#E7E7E7;stroke-width:1.0;"/><line style="stroke:#E7E7E7;stroke-width:1.0;" x1="237.5" x2="237.5" y1="164.6657" y2="184.6657"/><polygon fill="#E7E7E7" points="233.5,174.6657,237.5,184.6657,241.5,174.6657,237.5,178.6657" style="stroke:#E7E7E7;stroke-width:1.0;"/><line style="stroke:#E7E7E7;stroke-width:1.0;" x1="370.5" x2="382.5" y1="251.0658" y2="251.0658"/><polygon fill="#E7E7E7" points="378.5,209.2658,382.5,199.2658,386.5,209.2658,382.5,205.2658" style="stroke:#E7E7E7;stroke-width:1.0;"/><line style="stroke:#E7E7E7;stroke-width:1.0;" x1="382.5" x2="382.5" y1="147.4657" y2="251.0658"/><line style="stroke:#E7E7E7;stroke-width:1.0;" x1="382.5" x2="336.5" y1="147.4657" y2="147.4657"/><polygon fill="#E7E7E7" points="346.5,143.4657,336.5,147.4657,346.5,151.4657,342.5,147.4657" style="stroke:#E7E7E7;stroke-width:1.0;"/><line style="stroke:#E7E7E7;stroke-width:1.0;" x1="237.5" x2="237.5" y1="219.0658" y2="239.0658"/><polygon fill="#E7E7E7" points="233.5,229.0658,237.5,239.0658,241.5,229.0658,237.5,233.0658" style="stroke:#E7E7E7;stroke-width:1.0;"/><line style="stroke:#E7E7E7;stroke-width:1.0;" x1="237.5" x2="237.5" y1="263.0658" y2="304.4648"/><polygon fill="#E7E7E7" points="233.5,294.4648,237.5,304.4648,241.5,294.4648,237.5,298.4648" style="stroke:#E7E7E7;stroke-width:1.0;"/><text fill="#FFFFFF" font-family="sans-serif" font-size="11" lengthAdjust="spacing" textLength="21" x="241.5" y="284.3705">Yes</text><line style="stroke:#E7E7E7;stroke-width:1.0;" x1="237.5" x2="237.5" y1="438.5753" y2="462.9776"/><polygon fill="#E7E7E7" points="233.5,452.9776,237.5,462.9776,241.5,452.9776,237.5,456.9776" style="stroke:#E7E7E7;stroke-width:1.0;"/><line style="stroke:#E7E7E7;stroke-width:1.0;" x1="340" x2="416" y1="426.5753" y2="426.5753"/><polygon fill="#E7E7E7" points="412,470.1777,416,480.1777,420,470.1777,416,474.1777" style="stroke:#E7E7E7;stroke-width:1.0;"/><line style="stroke:#E7E7E7;stroke-width:1.0;" x1="416" x2="416" y1="426.5753" y2="529.3777"/><line style="stroke:#E7E7E7;stroke-width:1.0;" x1="416" x2="249.5" y1="529.3777" y2="529.3777"/><polygon fill="#E7E7E7" points="259.5,525.3777,249.5,529.3777,259.5,533.3777,255.5,529.3777" style="stroke:#E7E7E7;stroke-width:1.0;"/><line style="stroke:#E7E7E7;stroke-width:1.0;" x1="237.5" x2="237.5" y1="497.3777" y2="517.3777"/><polygon fill="#E7E7E7" points="233.5,507.3777,237.5,517.3777,241.5,507.3777,237.5,511.3777" style="stroke:#E7E7E7;stroke-width:1.0;"/><line style="stroke:#E7E7E7;stroke-width:1.0;" x1="237.5" x2="237.5" y1="585.3777" y2="609.7801"/><polygon fill="#E7E7E7" points="233.5,599.7801,237.5,609.7801,241.5,599.7801,237.5,603.7801" style="stroke:#E7E7E7;stroke-width:1.0;"/><line style="stroke:#E7E7E7;stroke-width:1.0;" x1="340" x2="416" y1="573.3777" y2="573.3777"/><polygon fill="#E7E7E7" points="412,616.9801,416,626.9801,420,616.9801,416,620.9801" style="stroke:#E7E7E7;stroke-width:1.0;"/><line style="stroke:#E7E7E7;stroke-width:1.0;" x1="416" x2="416" y1="573.3777" y2="676.1802"/><line style="stroke:#E7E7E7;stroke-width:1.0;" x1="416" x2="249.5" y1="676.1802" y2="676.1802"/><polygon fill="#E7E7E7" points="259.5,672.1802,249.5,676.1802,259.5,680.1802,255.5,676.1802" style="stroke:#E7E7E7;stroke-width:1.0;"/><line style="stroke:#E7E7E7;stroke-width:1.0;" x1="237.5" x2="237.5" y1="644.1802" y2="664.1802"/><polygon fill="#E7E7E7" points="233.5,654.1802,237.5,664.1802,241.5,654.1802,237.5,658.1802" style="stroke:#E7E7E7;stroke-width:1.0;"/><line style="stroke:#E7E7E7;stroke-width:1.0;" x1="237.5" x2="237.5" y1="541.3777" y2="561.3777"/><polygon fill="#E7E7E7" points="233.5,551.3777,237.5,561.3777,241.5,551.3777,237.5,555.3777" style="stroke:#E7E7E7;stroke-width:1.0;"/><line style="stroke:#E7E7E7;stroke-width:1.0;" x1="237.5" x2="237.5" y1="732.1802" y2="756.5825"/><polygon fill="#E7E7E7" points="233.5,746.5825,237.5,756.5825,241.5,746.5825,237.5,750.5825" style="stroke:#E7E7E7;stroke-width:1.0;"/><line style="stroke:#E7E7E7;stroke-width:1.0;" x1="354" x2="430" y1="720.1802" y2="720.1802"/><polygon fill="#E7E7E7" points="426,763.7826,430,773.7826,434,763.7826,430,767.7826" style="stroke:#E7E7E7;stroke-width:1.0;"/><line style="stroke:#E7E7E7;stroke-width:1.0;" x1="430" x2="430" y1="720.1802" y2="822.9826"/><line style="stroke:#E7E7E7;stroke-width:1.0;" x1="430" x2="249.5" y1="822.9826" y2="822.9826"/><polygon fill="#E7E7E7" points="259.5,818.9826,249.5,822.9826,259.5,826.9826,255.5,822.9826" style="stroke:#E7E7E7;stroke-width:1.0;"/><line style="stroke:#E7E7E7;stroke-width:1.0;" x1="237.5" x2="237.5" y1="790.9826" y2="810.9826"/><polygon fill="#E7E7E7" points="233.5,800.9826,237.5,810.9826,241.5,800.9826,237.5,804.9826" style="stroke:#E7E7E7;stroke-width:1.0;"/><line style="stroke:#E7E7E7;stroke-width:1.0;" x1="237.5" x2="237.5" y1="688.1802" y2="708.1802"/><polygon fill="#E7E7E7" points="233.5,698.1802,237.5,708.1802,241.5,698.1802,237.5,702.1802" style="stroke:#E7E7E7;stroke-width:1.0;"/><line style="stroke:#E7E7E7;stroke-width:1.0;" x1="237.5" x2="237.5" y1="878.9826" y2="903.385"/><polygon fill="#E7E7E7" points="233.5,893.385,237.5,903.385,241.5,893.385,237.5,897.385" style="stroke:#E7E7E7;stroke-width:1.0;"/><line style="stroke:#E7E7E7;stroke-width:1.0;" x1="354" x2="430" y1="866.9826" y2="866.9826"/><polygon fill="#E7E7E7" points="426,910.585,430,920.585,434,910.585,430,914.585" style="stroke:#E7E7E7;stroke-width:1.0;"/><line style="stroke:#E7E7E7;stroke-width:1.0;" x1="430" x2="430" y1="866.9826" y2="969.7851"/><line style="stroke:#E7E7E7;stroke-width:1.0;" x1="430" x2="249.5" y1="969.7851" y2="969.7851"/><polygon fill="#E7E7E7" points="259.5,965.7851,249.5,969.7851,259.5,973.7851,255.5,969.7851" style="stroke:#E7E7E7;stroke-width:1.0;"/><line style="stroke:#E7E7E7;stroke-width:1.0;" x1="237.5" x2="237.5" y1="937.7851" y2="957.7851"/><polygon fill="#E7E7E7" points="233.5,947.7851,237.5,957.7851,241.5,947.7851,237.5,951.7851" style="stroke:#E7E7E7;stroke-width:1.0;"/><line style="stroke:#E7E7E7;stroke-width:1.0;" x1="237.5" x2="237.5" y1="834.9826" y2="854.9826"/><polygon fill="#E7E7E7" points="233.5,844.9826,237.5,854.9826,241.5,844.9826,237.5,848.9826" style="stroke:#E7E7E7;stroke-width:1.0;"/><line style="stroke:#E7E7E7;stroke-width:1.0;" x1="237.5" x2="237.5" y1="981.7851" y2="1001.7851"/><polygon fill="#E7E7E7" points="233.5,991.7851,237.5,1001.7851,241.5,991.7851,237.5,995.7851" style="stroke:#E7E7E7;stroke-width:1.0;"/><line style="stroke:#E7E7E7;stroke-width:1.0;" x1="237.5" x2="237.5" y1="382.8649" y2="414.5753"/><polygon fill="#E7E7E7" points="233.5,404.5753,237.5,414.5753,241.5,404.5753,237.5,408.5753" style="stroke:#E7E7E7;stroke-width:1.0;"/><line style="stroke:#E7E7E7;stroke-width:1.0;" x1="237.5" x2="237.5" y1="1036.1852" y2="1046.1852"/><line style="stroke:#E7E7E7;stroke-width:1.0;" x1="237.5" x2="448" y1="1046.1852" y2="1046.1852"/><polygon fill="#E7E7E7" points="444,716.9779,448,706.9779,452,716.9779,448,712.9779" style="stroke:#E7E7E7;stroke-width:1.0;"/><line style="stroke:#E7E7E7;stroke-width:1.0;" x1="448" x2="448" y1="370.8649" y2="1046.1852"/><line style="stroke:#E7E7E7;stroke-width:1.0;" x1="448" x2="340.5" y1="370.8649" y2="370.8649"/><polygon fill="#E7E7E7" points="350.5,366.8649,340.5,370.8649,350.5,374.8649,346.5,370.8649" style="stroke:#E7E7E7;stroke-width:1.0;"/><line style="stroke:#E7E7E7;stroke-width:1.0;" x1="134.5" x2="33" y1="370.8649" y2="370.8649"/><polygon fill="#E7E7E7" points="29,702.9779,33,712.9779,37,702.9779,33,706.9779" style="stroke:#E7E7E7;stroke-width:1.0;"/><line style="stroke:#E7E7E7;stroke-width:1.0;" x1="33" x2="33" y1="370.8649" y2="1058.1852"/><line style="stroke:#E7E7E7;stroke-width:1.0;" x1="33" x2="237.5" y1="1058.1852" y2="1058.1852"/><line style="stroke:#E7E7E7;stroke-width:1.0;" x1="237.5" x2="237.5" y1="1058.1852" y2="1116.4821"/><polygon fill="#E7E7E7" points="233.5,1106.4821,237.5,1116.4821,241.5,1106.4821,237.5,1110.4821" style="stroke:#E7E7E7;stroke-width:1.0;"/><line style="stroke:#E7E7E7;stroke-width:1.0;" x1="237.5" x2="237.5" y1="338.8649" y2="358.8649"/><polygon fill="#E7E7E7" points="233.5,348.8649,237.5,358.8649,241.5,348.8649,237.5,352.8649" style="stroke:#E7E7E7;stroke-width:1.0;"/><line style="stroke:#E7E7E7;stroke-width:1.0;" x1="237.5" x2="237.5" y1="83.9688" y2="130.2656"/><polygon fill="#E7E7E7" points="233.5,120.2656,237.5,130.2656,241.5,120.2656,237.5,124.2656" style="stroke:#E7E7E7;stroke-width:1.0;"/><line style="stroke:#E7E7E7;stroke-width:1.0;" x1="237.5" x2="237.5" y1="1260.9927" y2="1280.9927"/><polygon fill="#E7E7E7" points="233.5,1270.9927,237.5,1280.9927,241.5,1270.9927,237.5,1274.9927" style="stroke:#E7E7E7;stroke-width:1.0;"/><line style="stroke:#E7E7E7;stroke-width:1.0;" x1="237.5" x2="237.5" y1="1315.3928" y2="1344.4905"/><polygon fill="#E7E7E7" points="233.5,1334.4905,237.5,1344.4905,241.5,1334.4905,237.5,1338.4905" style="stroke:#E7E7E7;stroke-width:1.0;"/><line style="stroke:#E7E7E7;stroke-width:1.0;" x1="237.5" x2="237.5" y1="1378.8906" y2="1398.8906"/><polygon fill="#E7E7E7" points="233.5,1388.8906,237.5,1398.8906,241.5,1388.8906,237.5,1392.8906" style="stroke:#E7E7E7;stroke-width:1.0;"/><line style="stroke:#E7E7E7;stroke-width:1.0;" x1="237.5" x2="237.5" y1="1194.8822" y2="1226.5926"/><polygon fill="#E7E7E7" points="233.5,1216.5926,237.5,1226.5926,241.5,1216.5926,237.5,1220.5926" style="stroke:#E7E7E7;stroke-width:1.0;"/><line style="stroke:#E7E7E7;stroke-width:1.0;" x1="237.5" x2="237.5" y1="1433.2907" y2="1443.2907"/><line style="stroke:#E7E7E7;stroke-width:1.0;" x1="237.5" x2="415" y1="1443.2907" y2="1443.2907"/><polygon fill="#E7E7E7" points="411,1324.4905,415,1314.4905,419,1324.4905,415,1320.4905" style="stroke:#E7E7E7;stroke-width:1.0;"/><line style="stroke:#E7E7E7;stroke-width:1.0;" x1="415" x2="415" y1="1182.8822" y2="1443.2907"/><line style="stroke:#E7E7E7;stroke-width:1.0;" x1="415" x2="329.5" y1="1182.8822" y2="1182.8822"/><polygon fill="#E7E7E7" points="339.5,1178.8822,329.5,1182.8822,339.5,1186.8822,335.5,1182.8822" style="stroke:#E7E7E7;stroke-width:1.0;"/><line style="stroke:#E7E7E7;stroke-width:1.0;" x1="145.5" x2="60" y1="1182.8822" y2="1182.8822"/><polygon fill="#E7E7E7" points="56,1310.4905,60,1320.4905,64,1310.4905,60,1314.4905" style="stroke:#E7E7E7;stroke-width:1.0;"/><line style="stroke:#E7E7E7;stroke-width:1.0;" x1="60" x2="60" y1="1182.8822" y2="1455.2907"/><line style="stroke:#E7E7E7;stroke-width:1.0;" x1="60" x2="237.5" y1="1455.2907" y2="1455.2907"/><line style="stroke:#E7E7E7;stroke-width:1.0;" x1="237.5" x2="237.5" y1="1455.2907" y2="1487.2907"/><polygon fill="#E7E7E7" points="233.5,1477.2907,237.5,1487.2907,241.5,1477.2907,237.5,1481.2907" style="stroke:#E7E7E7;stroke-width:1.0;"/><line style="stroke:#E7E7E7;stroke-width:1.0;" x1="237.5" x2="237.5" y1="1150.8822" y2="1170.8822"/><polygon fill="#E7E7E7" points="233.5,1160.8822,237.5,1170.8822,241.5,1160.8822,237.5,1164.8822" style="stroke:#E7E7E7;stroke-width:1.0;"/><line style="stroke:#E7E7E7;stroke-width:1.0;" x1="237.5" x2="237.5" y1="1521.2594" y2="1541.2594"/><polygon fill="#E7E7E7" points="233.5,1531.2594,237.5,1541.2594,241.5,1531.2594,237.5,1535.2594" style="stroke:#E7E7E7;stroke-width:1.0;"/><!--SRC=[hLHDIyD04BtdLmmvjG51GJoaOf4YfPSgz20Ubyt4BAQxo-x4Lgp_tKcQVkK3AlOOyjxRzuPvuqau2e9uaYlv0KP354rHenE4y2AyNncNHD5345Z6ALAC26VQ5WGpJUXI8J64xo00S6XH4CIlGX64eQt9aAD-fomCGLMqSOa5Y1VY4xjWcoEjLQPoXC7CT-hTN0CPkBi5cGad9BlnC1w2yZ2Oco6hN3syeH-LUl42JpmT6Ao3IqjV5Qn-Rv8Xpw8FNZ_nLBA6sp0gPPDQvaLIHl8MfH9vYqKPQXYmfM55ObUFITA7LvgpzLWOLNpCFUwIyfTELDhbHXTBT4gUxQOJVp4tkLcX0oay9cSxwkLSp5LXxPzTzNB-uQfLYcDkLGm6rqiwDmIx7VmvgUTpGLtzR7HWj_YRrk9l2mOcFKNlgqLy8nfjZAAw2V4SrmHEwCGicQvqWkiozlRdj7Am3yMYgQjmtKqJr9QO62tvDkdoFfrADUP-e3I6sfeadvVkG3pMk1xc0H15zq7WoTXV]--></g></svg>